<svg class="jsx-2263963463 artboard"><svg viewBox="-249.4354838709678 -103 1942.311827956989 200" xmlns="http://www.w3.org/2000/svg" xmlns:xlink="http://www.w3.org/1999/xlink" version="1.1" class="jsx-2263963463 artboard-inner" style="width: 339px; height: 34.9069px; max-height: 100%;"><g transform="translate(-7.258064516129032 58.52150537634409) scale(1.866786140979689)" fill="#FFFFFF"><g id="line1"><path d="M8.496-50.328C7.992-51.624 7.056-52.056 6.120-52.056C5.040-52.056 3.888-51.048 3.888-49.680C3.888-49.392 3.960-49.032 4.104-48.672L23.760-1.440C24.120-0.504 24.912 0 25.776 0L28.368 0C29.304 0 30.096-0.432 30.456-1.368L50.112-48.600C50.256-48.888 50.400-49.392 50.400-49.752C50.400-51.048 49.392-52.056 48.096-52.056C47.160-52.056 46.368-51.552 45.936-50.472L28.152-7.200C27.648-5.904 27.432-4.968 27.288-3.888L27.144-3.888C27.000-4.968 26.784-5.904 26.280-7.200Z"></path><path d="M115.906-26.064C115.906-40.752 104.098-52.776 89.698-52.776C75.298-52.776 63.490-40.752 63.490-26.064C63.490-11.376 75.298 0.720 89.698 0.720C104.098 0.720 115.906-11.376 115.906-26.064ZM111.226-26.064C111.226-13.392 101.578-3.528 89.698-3.528C77.818-3.528 68.170-13.392 68.170-26.064C68.170-38.736 77.818-48.456 89.698-48.456C101.578-48.456 111.226-38.736 111.226-26.064Z"></path><path d="M132.523-51.048C132.091-51.696 131.299-52.056 130.579-52.056C129.355-52.056 128.275-51.048 128.275-49.680C128.275-49.176 128.419-48.744 128.707-48.312L147.067-22.464L147.067-2.304C147.067-1.008 148.075 0 149.371 0C150.667 0 151.747-1.008 151.747-2.304L151.747-22.464L170.035-48.312C170.395-48.816 170.539-49.320 170.539-49.752C170.539-51.048 169.531-52.056 168.235-52.056C167.515-52.056 166.867-51.768 166.363-51.048L149.515-26.784Z"></path><path d="M223.733-1.512C224.093-0.648 224.885 0 225.965 0C226.253 0 226.685-0.072 226.973-0.216C227.837-0.648 228.341-1.512 228.341-2.376C228.341-2.664 228.269-3.096 228.125-3.384L206.957-50.760C206.597-51.552 205.877-52.056 204.869-52.056L203.789-52.056C202.853-52.056 202.133-51.552 201.773-50.760L180.461-3.168C180.317-2.880 180.245-2.520 180.245-2.232C180.245-1.368 180.749-0.576 181.541-0.216C181.829-0.072 182.189 0 182.477 0C183.341 0 184.205-0.576 184.565-1.368L189.893-13.392L218.549-13.392ZM204.221-46.008L216.677-17.568L191.693-17.568Z"></path><path d="M266.486-3.528C254.030-3.528 245.318-12.456 245.318-26.064C245.318-39.312 254.246-48.456 266.846-48.456C274.622-48.456 279.014-45.432 281.606-40.824C282.110-39.960 282.902-39.744 283.550-39.744C284.990-39.744 285.854-40.824 285.854-41.976C285.854-42.408 285.710-42.912 285.494-43.272C281.822-49.320 275.846-52.776 266.846-52.776C251.150-52.776 240.638-40.752 240.638-26.064C240.638-9.864 252.302 0.720 266.486 0.720C274.190 0.720 281.678-1.944 287.006-8.352L287.006-25.632C287.006-26.856 286.070-27.792 284.846-27.792L265.262-27.792C264.038-27.792 263.102-26.856 263.102-25.632C263.102-24.408 264.038-23.472 265.262-23.472L282.326-23.472L282.326-9.720C278.150-5.328 272.174-3.528 266.486-3.528Z"></path><path d="M345.312 0C346.536 0 347.472-0.936 347.472-2.160C347.472-3.384 346.536-4.320 345.312-4.320L311.328-4.320L311.328-23.904L334.224-23.904C335.448-23.904 336.384-24.840 336.384-26.064C336.384-27.288 335.448-28.224 334.224-28.224L311.328-28.224L311.328-47.736L345.312-47.736C346.536-47.736 347.472-48.672 347.472-49.896C347.472-51.120 346.536-52.056 345.312-52.056L308.952-52.056C307.656-52.056 306.648-50.976 306.648-49.680L306.648-2.304C306.648-1.008 307.656 0 308.952 0Z"></path><path d="M402.034-0.936C402.466-0.360 403.114 0 403.906 0C405.202 0 406.282-1.008 406.282-2.304C406.282-2.952 405.994-3.528 405.634-3.960L391.810-22.176C396.850-22.608 400.594-24.120 403.114-26.568C405.706-29.016 407.146-32.472 407.146-37.080C407.146-40.896 405.706-44.136 403.402-46.584C400.090-50.112 395.050-52.056 389.290-52.056L366.682-52.056C365.386-52.056 364.378-50.976 364.378-49.680L364.378-2.304C364.378-1.008 365.386 0 366.682 0C367.978 0 369.058-1.008 369.058-2.304L369.058-22.104L386.194-22.104ZM389.290-47.736C393.754-47.736 397.642-46.296 399.946-43.704C401.674-41.760 402.466-39.600 402.466-37.080C402.466-33.624 401.386-31.032 399.442-29.304C397.714-27.720 394.330-26.424 389.290-26.424L369.058-26.424L369.058-47.736Z"></path><path d=""></path><path d="M457.805-50.328C457.301-51.624 456.365-52.056 455.429-52.056C454.349-52.056 453.197-51.048 453.197-49.680C453.197-49.392 453.269-49.032 453.413-48.672L473.069-1.440C473.429-0.504 474.221 0 475.085 0L477.677 0C478.613 0 479.405-0.432 479.765-1.368L499.421-48.600C499.565-48.888 499.709-49.392 499.709-49.752C499.709-51.048 498.701-52.056 497.405-52.056C496.469-52.056 495.677-51.552 495.245-50.472L477.461-7.200C476.957-5.904 476.741-4.968 476.597-3.888L476.453-3.888C476.309-4.968 476.093-5.904 475.589-7.200Z"></path><path d="M554.702 0C555.926 0 556.862-0.936 556.862-2.160C556.862-3.384 555.926-4.320 554.702-4.320L520.718-4.320L520.718-23.904L543.614-23.904C544.838-23.904 545.774-24.840 545.774-26.064C545.774-27.288 544.838-28.224 543.614-28.224L520.718-28.224L520.718-47.736L554.702-47.736C555.926-47.736 556.862-48.672 556.862-49.896C556.862-51.120 555.926-52.056 554.702-52.056L518.342-52.056C517.046-52.056 516.038-50.976 516.038-49.680L516.038-2.304C516.038-1.008 517.046 0 518.342 0Z"></path><path d="M608.544-1.224C609.048-0.504 609.624 0 610.416 0L613.152 0C614.448 0 615.528-1.008 615.528-2.304L615.528-49.680C615.528-50.976 614.448-51.984 613.152-51.984C611.856-51.984 610.848-50.976 610.848-49.680L610.848-9.000C610.848-7.632 610.992-6.192 611.208-4.968L611.064-4.968C610.704-5.976 610.128-7.128 609.264-8.424L580.536-50.832C580.032-51.552 579.456-52.056 578.664-52.056L576-52.056C574.704-52.056 573.768-51.048 573.768-49.752L573.768-2.232C573.768-0.936 574.704 0 576 0C577.296 0 578.304-0.936 578.304-2.232L578.304-42.984C578.304-44.352 578.160-45.792 577.944-47.016L578.088-47.016C578.448-46.008 579.024-44.856 579.888-43.560Z"></path><path d="M669.514-47.736C670.738-47.736 671.674-48.672 671.674-49.896C671.674-51.120 670.738-52.056 669.514-52.056L633.154-52.056C631.930-52.056 630.994-51.120 630.994-49.896C630.994-48.672 631.930-47.736 633.154-47.736L648.994-47.736L648.994-2.304C648.994-1.008 650.002 0 651.298 0C652.594 0 653.674-1.008 653.674-2.304L653.674-47.736Z"></path><path d="M708.235-3.600C703.699-3.600 699.451-5.256 696.355-8.208C692.539-11.880 691.099-16.128 691.099-20.880L691.099-50.400C691.099-51.696 690.019-52.776 688.723-52.776C687.427-52.776 686.419-51.696 686.419-50.400L686.419-20.880C686.419-14.760 688.723-9.216 692.971-5.256C696.931-1.512 702.331 0.720 708.235 0.720C714.139 0.720 719.539-1.512 723.499-5.256C727.747-9.216 730.051-14.760 730.051-20.880L730.051-50.400C730.051-51.696 729.043-52.776 727.747-52.776C726.451-52.776 725.371-51.696 725.371-50.400L725.371-20.880C725.371-16.128 723.931-11.880 720.115-8.208C717.019-5.256 712.771-3.600 708.235-3.600Z"></path><path d="M788.429-0.936C788.861-0.360 789.509 0 790.301 0C791.597 0 792.677-1.008 792.677-2.304C792.677-2.952 792.389-3.528 792.029-3.960L778.205-22.176C783.245-22.608 786.989-24.120 789.509-26.568C792.101-29.016 793.541-32.472 793.541-37.080C793.541-40.896 792.101-44.136 789.797-46.584C786.485-50.112 781.445-52.056 775.685-52.056L753.077-52.056C751.781-52.056 750.773-50.976 750.773-49.680L750.773-2.304C750.773-1.008 751.781 0 753.077 0C754.373 0 755.453-1.008 755.453-2.304L755.453-22.104L772.589-22.104ZM775.685-47.736C780.149-47.736 784.037-46.296 786.341-43.704C788.069-41.760 788.861-39.600 788.861-37.080C788.861-33.624 787.781-31.032 785.837-29.304C784.109-27.720 780.725-26.424 775.685-26.424L755.453-26.424L755.453-47.736Z"></path><path d="M851.126 0C852.350 0 853.286-0.936 853.286-2.160C853.286-3.384 852.350-4.320 851.126-4.320L817.142-4.320L817.142-23.904L840.038-23.904C841.262-23.904 842.198-24.840 842.198-26.064C842.198-27.288 841.262-28.224 840.038-28.224L817.142-28.224L817.142-47.736L851.126-47.736C852.350-47.736 853.286-48.672 853.286-49.896C853.286-51.120 852.350-52.056 851.126-52.056L814.766-52.056C813.470-52.056 812.462-50.976 812.462-49.680L812.462-2.304C812.462-1.008 813.470 0 814.766 0Z"></path><path d="M910.728-14.904C910.728-18.576 909.648-20.880 907.560-23.256C905.184-25.920 901.656-27.576 896.112-28.512C893.160-29.016 886.392-30.096 883.656-30.600C876.528-31.896 872.784-33.336 872.784-38.880C872.784-43.560 877.896-48.600 889.416-48.600C895.176-48.600 899.784-46.944 904.032-43.704C904.608-43.272 904.968-42.912 905.904-42.912C907.488-42.912 908.208-44.136 908.208-45.144C908.208-46.152 907.632-46.728 907.344-46.944C904.320-49.176 897.984-52.776 889.488-52.776C875.376-52.776 868.104-45.792 868.104-38.808C868.104-30.312 874.656-27.504 883.368-26.064C886.464-25.560 892.728-24.552 895.320-24.048C899.352-23.256 901.872-22.392 903.672-20.592C905.400-18.864 906.048-16.776 906.048-14.400C906.048-12.168 905.256-10.008 903.240-7.776C900.792-5.184 896.832-3.456 889.272-3.456C882.144-3.456 876.312-5.760 871.128-11.664C870.480-12.384 869.832-12.600 869.184-12.600C867.816-12.600 866.952-11.520 866.952-10.296C866.952-9.864 867.096-9.216 867.528-8.712C872.712-2.592 880.416 0.792 889.560 0.792C897.264 0.792 902.808-1.152 906.552-4.824C909.072-7.272 910.728-11.232 910.728-14.904Z"></path></g></g><g transform="translate(-249.4354838709678 -103) scale(3.333333333333333)" id="logomark"><g fill="#FFFFFF"><ellipse cx="30" cy="30" rx="5.5" ry="5.4"></ellipse><path d="M60 30C60 13.5 46.5 0 30 0S0 13.5 0 30s13.4 30 30 30c5.4 0 10.5-1.5 14.9-4 .9.6 1.9.9 3 .9 3 0 5.5-2.4 5.5-5.4 0-.8-.2-1.5-.5-2.2 4.4-5.2 7.1-12 7.1-19.3zM2.8 30C2.8 15 15 2.8 30 2.8S57.2 15 57.2 30c0 6.5-2.3 12.4-6.1 17.1-.9-.7-2-1.1-3.2-1.1-3 0-5.5 2.4-5.5 5.4 0 .9.2 1.7.6 2.4-3.9 2.1-8.3 3.3-13.1 3.3C15 57.2 2.8 45 2.8 30z"></path></g></g></svg></svg>